<?xml version="1.0" encoding="utf-8"?>
<!-- Generator: Adobe Illustrator 15.0.0, SVG Export Plug-In . SVG Version: 6.00 Build 0)  -->
<!DOCTYPE svg PUBLIC "-//W3C//DTD SVG 1.1//EN" "http://www.w3.org/Graphics/SVG/1.1/DTD/svg11.dtd">
<svg version="1.1" id="Laag_1" xmlns="http://www.w3.org/2000/svg" xmlns:xlink="http://www.w3.org/1999/xlink" x="0px" y="0px"
	 width="190px" height="110px" viewBox="0 0 190 110" enable-background="new 0 0 190 110" xml:space="preserve">
<rect y="0.333" fill-rule="evenodd" clip-rule="evenodd" fill="#FFFFFF" width="190" height="110"/>
<g>
	<path fill-rule="evenodd" clip-rule="evenodd" fill="#FF0600" d="M23.662,60.223h18.08c0.999,0,1.809-0.808,1.809-1.808v-9.039
		c0-0.999-0.81-1.81-1.809-1.81H9.197c-0.998,0-1.808,0.811-1.808,1.81v28.927c0,1,0.81,1.809,1.808,1.809h18.08
		c0.999,0,1.809,0.811,1.809,1.809v3.613c0,1-0.811,1.81-1.809,1.81H9.197c-0.998,0-1.808,0.811-1.808,1.809v9.039
		c0,1,0.81,1.81,1.808,1.81h32.544c0.999,0,1.809-0.81,1.809-1.81V69.263c0-0.999-0.81-1.809-1.809-1.809h-18.08
		c-0.998,0-1.808-0.808-1.808-1.808v-3.614C21.854,61.032,22.664,60.223,23.662,60.223L23.662,60.223z"/>
	<path fill-rule="evenodd" clip-rule="evenodd" fill="#FF0600" d="M101.407,47.566H52.59c-0.999,0-1.808,0.811-1.808,1.81V98.19
		c0,1,0.809,1.81,1.808,1.81h9.041c0.998,0,1.808-0.81,1.808-1.81V65.646c0-0.998,0.809-1.809,1.807-1.809h3.617
		c0.999,0,1.808,0.811,1.808,1.809V98.19c0,1,0.81,1.81,1.808,1.81h9.041c0.998,0,1.808-0.81,1.808-1.81V65.646
		c0-0.998,0.81-1.809,1.808-1.809h3.615c0.999,0,1.809,0.811,1.809,1.809V98.19c0,1,0.809,1.81,1.807,1.81h9.041
		c0.997,0,1.809-0.81,1.809-1.81V49.376C103.216,48.377,102.404,47.566,101.407,47.566L101.407,47.566z"/>
	<path fill-rule="evenodd" clip-rule="evenodd" fill="#FF0600" d="M126.72,60.223h18.079c0.999,0,1.809-0.808,1.809-1.808v-9.039
		c0-0.999-0.81-1.81-1.809-1.81h-32.543c-1,0-1.809,0.811-1.809,1.81v28.927c0,1,0.809,1.809,1.809,1.809h18.079
		c0.998,0,1.808,0.811,1.808,1.809v3.613c0,1-0.81,1.81-1.808,1.81h-18.079c-1,0-1.809,0.811-1.809,1.809v9.039
		c0,1,0.809,1.81,1.809,1.81h32.543c0.999,0,1.809-0.81,1.809-1.81V69.263c0-0.999-0.81-1.809-1.809-1.809H126.72
		c-1,0-1.81-0.808-1.81-1.808l0.001-3.614C124.911,61.032,125.72,60.223,126.72,60.223L126.72,60.223z"/>
	<path fill-rule="evenodd" clip-rule="evenodd" fill="#FF0600" d="M188.19,47.566h-32.542c-1,0-1.809,0.811-1.809,1.81v9.039
		c0,1,0.809,1.808,1.809,1.808h8.134c0.999,0,1.809,0.81,1.809,1.81V98.19c0,1,0.81,1.81,1.808,1.81h9.041
		c0.999,0,1.809-0.81,1.809-1.81V62.032c0-1,0.811-1.81,1.807-1.81h8.136c1,0,1.81-0.808,1.81-1.808v-9.039
		C190,48.377,189.19,47.566,188.19,47.566L188.19,47.566z"/>
</g>
</svg>
